<svg width="232" height="36" viewBox="0 0 232 36" fill="none" xmlns="http://www.w3.org/2000/svg">
<rect width="36" height="36" rx="8" fill="#2D2D2D"/>
<path d="M18 24.75C21.7279 24.75 24.75 21.7279 24.75 18C24.75 14.2721 21.7279 11.25 18 11.25C14.2721 11.25 11.25 14.2721 11.25 18C11.25 21.7279 14.2721 24.75 18 24.75Z" fill="white"/>
<path d="M18 6.75V11.25V6.75Z" fill="black"/>
<path d="M18 6.75V11.25" stroke="white" stroke-width="3" stroke-linecap="round"/>
<path d="M18 24.75V29.25V24.75Z" fill="black"/>
<path d="M18 24.75V29.25" stroke="white" stroke-width="3" stroke-linecap="round"/>
<path d="M6.75 18H11.25H6.75Z" fill="black"/>
<path d="M6.75 18H11.25" stroke="white" stroke-width="3" stroke-linecap="round"/>
<path d="M24.75 18H29.25H24.75Z" fill="black"/>
<path d="M24.75 18H29.25" stroke="white" stroke-width="3" stroke-linecap="round"/>
<path d="M10.125 10.125L13.5 13.5L10.125 10.125Z" fill="black"/>
<path d="M10.125 10.125L13.5 13.5" stroke="white" stroke-width="3" stroke-linecap="round"/>
<path d="M22.5 22.5L25.875 25.875L22.5 22.5Z" fill="black"/>
<path d="M22.5 22.5L25.875 25.875" stroke="white" stroke-width="3" stroke-linecap="round"/>
<path d="M10.125 25.875L13.5 22.5L10.125 25.875Z" fill="black"/>
<path d="M10.125 25.875L13.5 22.5" stroke="white" stroke-width="3" stroke-linecap="round"/>
<path d="M22.5 13.5L25.875 10.125L22.5 13.5Z" fill="black"/>
<path d="M22.5 13.5L25.875 10.125" stroke="white" stroke-width="3" stroke-linecap="round"/>
<path d="M57.1548 14.6378C57.098 14.0649 56.8542 13.6198 56.4233 13.3026C55.9924 12.9853 55.4077 12.8267 54.669 12.8267C54.1671 12.8267 53.7434 12.8977 53.3977 13.0398C53.0521 13.1771 52.7869 13.3688 52.6023 13.6151C52.4223 13.8613 52.3324 14.1406 52.3324 14.4531C52.3229 14.7135 52.3774 14.9408 52.4957 15.1349C52.6188 15.3291 52.7869 15.4972 53 15.6392C53.2131 15.7765 53.4593 15.8973 53.7386 16.0014C54.018 16.1009 54.3163 16.1861 54.6335 16.2571L55.9403 16.5696C56.5748 16.7116 57.1572 16.901 57.6875 17.1378C58.2178 17.3745 58.6771 17.6657 59.0653 18.0114C59.4536 18.357 59.7543 18.7642 59.9673 19.233C60.1851 19.7017 60.2964 20.2391 60.3011 20.8452C60.2964 21.7353 60.0691 22.5071 59.6193 23.1605C59.1742 23.8092 58.5303 24.3134 57.6875 24.6733C56.8494 25.0284 55.8385 25.206 54.6548 25.206C53.4806 25.206 52.4579 25.026 51.5866 24.6662C50.7202 24.3063 50.0431 23.7737 49.5554 23.0682C49.0724 22.358 48.8191 21.4796 48.7955 20.4332H51.7713C51.8045 20.9209 51.9441 21.3281 52.1903 21.6548C52.4413 21.9768 52.7751 22.2206 53.1918 22.3864C53.6132 22.5473 54.089 22.6278 54.6193 22.6278C55.1402 22.6278 55.5923 22.5521 55.9759 22.4006C56.3641 22.2491 56.6648 22.0384 56.8778 21.7685C57.0909 21.4986 57.1974 21.1884 57.1974 20.8381C57.1974 20.5114 57.1004 20.2367 56.9062 20.0142C56.7169 19.7917 56.4375 19.6023 56.0682 19.446C55.7036 19.2898 55.2562 19.1477 54.7259 19.0199L53.142 18.6222C51.9157 18.3239 50.9474 17.8575 50.2372 17.223C49.527 16.5885 49.1742 15.7339 49.179 14.6591C49.1742 13.7784 49.4086 13.009 49.8821 12.3509C50.3603 11.6927 51.0161 11.179 51.8494 10.8097C52.6828 10.4403 53.6297 10.2557 54.6903 10.2557C55.7699 10.2557 56.7121 10.4403 57.517 10.8097C58.3267 11.179 58.9564 11.6927 59.4062 12.3509C59.8561 13.009 60.0881 13.7713 60.1023 14.6378H57.1548ZM62.3129 29.0909V14.0909H65.2958V15.9233H65.4308C65.5633 15.6297 65.7551 15.3314 66.006 15.0284C66.2617 14.7206 66.5932 14.465 67.0004 14.2614C67.4123 14.053 67.9237 13.9489 68.5344 13.9489C69.3299 13.9489 70.0638 14.1572 70.7362 14.5739C71.4085 14.9858 71.9459 15.6084 72.3484 16.4418C72.7508 17.2704 72.9521 18.3097 72.9521 19.5597C72.9521 20.7765 72.7556 21.804 72.3626 22.642C71.9743 23.4754 71.444 24.1075 70.7717 24.5384C70.104 24.9645 69.3559 25.1776 68.5273 25.1776C67.9402 25.1776 67.4407 25.0805 67.0288 24.8864C66.6216 24.6922 66.2878 24.4484 66.0273 24.1548C65.7669 23.8565 65.5681 23.5559 65.4308 23.2528H65.3384V29.0909H62.3129ZM65.2745 19.5455C65.2745 20.1941 65.3645 20.7599 65.5444 21.2429C65.7243 21.7259 65.9847 22.1023 66.3256 22.3722C66.6665 22.6373 67.0808 22.7699 67.5685 22.7699C68.061 22.7699 68.4776 22.6349 68.8185 22.3651C69.1594 22.0904 69.4175 21.7116 69.5927 21.2287C69.7726 20.741 69.8626 20.1799 69.8626 19.5455C69.8626 18.9157 69.775 18.3617 69.5998 17.8835C69.4246 17.4053 69.1665 17.0312 68.8256 16.7614C68.4847 16.4915 68.0657 16.3565 67.5685 16.3565C67.0761 16.3565 66.6594 16.4867 66.3185 16.7472C65.9824 17.0076 65.7243 17.3769 65.5444 17.8551C65.3645 18.3333 65.2745 18.8968 65.2745 19.5455ZM79.8981 25.2131C78.7949 25.2131 77.8408 24.9787 77.0359 24.5099C76.2357 24.0365 75.6178 23.3783 75.1822 22.5355C74.7466 21.688 74.5288 20.7055 74.5288 19.5881C74.5288 18.4612 74.7466 17.4763 75.1822 16.6335C75.6178 15.786 76.2357 15.1278 77.0359 14.6591C77.8408 14.1856 78.7949 13.9489 79.8981 13.9489C81.0013 13.9489 81.953 14.1856 82.7532 14.6591C83.5581 15.1278 84.1784 15.786 84.614 16.6335C85.0496 17.4763 85.2674 18.4612 85.2674 19.5881C85.2674 20.7055 85.0496 21.688 84.614 22.5355C84.1784 23.3783 83.5581 24.0365 82.7532 24.5099C81.953 24.9787 81.0013 25.2131 79.8981 25.2131ZM79.9123 22.8693C80.4142 22.8693 80.8332 22.7273 81.1694 22.4432C81.5056 22.1544 81.7589 21.7614 81.9293 21.2642C82.1045 20.767 82.1921 20.2012 82.1921 19.5668C82.1921 18.9323 82.1045 18.3665 81.9293 17.8693C81.7589 17.3722 81.5056 16.9792 81.1694 16.6903C80.8332 16.4015 80.4142 16.2571 79.9123 16.2571C79.4057 16.2571 78.9795 16.4015 78.6339 16.6903C78.293 16.9792 78.0349 17.3722 77.8597 17.8693C77.6893 18.3665 77.604 18.9323 77.604 19.5668C77.604 20.2012 77.6893 20.767 77.8597 21.2642C78.0349 21.7614 78.293 22.1544 78.6339 22.4432C78.9795 22.7273 79.4057 22.8693 79.9123 22.8693ZM93.0373 14.0909V16.3636H86.4677V14.0909H93.0373ZM87.9592 11.4773H90.9847V21.6477C90.9847 21.9271 91.0273 22.1449 91.1126 22.3011C91.1978 22.4527 91.3162 22.5592 91.4677 22.6207C91.6239 22.6823 91.8039 22.7131 92.0075 22.7131C92.1495 22.7131 92.2915 22.7012 92.4336 22.6776C92.5756 22.6491 92.6845 22.6278 92.7603 22.6136L93.2362 24.8651C93.0846 24.9124 92.8716 24.9669 92.5969 25.0284C92.3223 25.0947 91.9885 25.1349 91.5955 25.1491C90.8664 25.1776 90.2272 25.0805 89.6779 24.858C89.1334 24.6354 88.7096 24.2898 88.4066 23.821C88.1036 23.3523 87.9544 22.7604 87.9592 22.0455V11.4773ZM100.811 14.0909V16.3636H94.2411V14.0909H100.811ZM95.7326 11.4773H98.7582V21.6477C98.7582 21.9271 98.8008 22.1449 98.886 22.3011C98.9712 22.4527 99.0896 22.5592 99.2411 22.6207C99.3974 22.6823 99.5773 22.7131 99.7809 22.7131C99.9229 22.7131 100.065 22.7012 100.207 22.6776C100.349 22.6491 100.458 22.6278 100.534 22.6136L101.01 24.8651C100.858 24.9124 100.645 24.9669 100.37 25.0284C100.096 25.0947 99.762 25.1349 99.369 25.1491C98.6398 25.1776 98.0006 25.0805 97.4513 24.858C96.9068 24.6354 96.4831 24.2898 96.18 23.821C95.877 23.3523 95.7279 22.7604 95.7326 22.0455V11.4773ZM107.636 25.2131C106.514 25.2131 105.548 24.9858 104.738 24.5312C103.933 24.072 103.313 23.4233 102.877 22.5852C102.442 21.7424 102.224 20.7457 102.224 19.5952C102.224 18.473 102.442 17.4882 102.877 16.6406C103.313 15.7931 103.926 15.1326 104.717 14.6591C105.512 14.1856 106.445 13.9489 107.515 13.9489C108.235 13.9489 108.905 14.0649 109.525 14.2969C110.15 14.5241 110.695 14.8674 111.159 15.3267C111.627 15.786 111.992 16.3636 112.252 17.0597C112.513 17.7509 112.643 18.5606 112.643 19.4886V20.3196H103.431V18.4446H109.795C109.795 18.009 109.7 17.6231 109.511 17.2869C109.322 16.9508 109.059 16.688 108.723 16.4986C108.391 16.3045 108.005 16.2074 107.565 16.2074C107.106 16.2074 106.699 16.3139 106.343 16.527C105.993 16.7353 105.718 17.017 105.52 17.3722C105.321 17.7225 105.219 18.1132 105.214 18.544V20.3267C105.214 20.8665 105.314 21.3329 105.512 21.7259C105.716 22.1188 106.002 22.4219 106.372 22.6349C106.741 22.848 107.179 22.9545 107.686 22.9545C108.022 22.9545 108.33 22.9072 108.609 22.8125C108.888 22.7178 109.127 22.5758 109.326 22.3864C109.525 22.197 109.677 21.965 109.781 21.6903L112.579 21.875C112.437 22.5473 112.146 23.1345 111.706 23.6364C111.27 24.1335 110.707 24.5218 110.015 24.8011C109.329 25.0758 108.536 25.2131 107.636 25.2131ZM118.637 25.1776C117.809 25.1776 117.058 24.9645 116.386 24.5384C115.718 24.1075 115.188 23.4754 114.795 22.642C114.407 21.804 114.213 20.7765 114.213 19.5597C114.213 18.3097 114.414 17.2704 114.816 16.4418C115.219 15.6084 115.754 14.9858 116.422 14.5739C117.094 14.1572 117.83 13.9489 118.63 13.9489C119.241 13.9489 119.75 14.053 120.157 14.2614C120.569 14.465 120.901 14.7206 121.152 15.0284C121.407 15.3314 121.601 15.6297 121.734 15.9233H121.826V10.4545H124.845V25H121.862V23.2528H121.734C121.592 23.5559 121.391 23.8565 121.13 24.1548C120.875 24.4484 120.541 24.6922 120.129 24.8864C119.722 25.0805 119.225 25.1776 118.637 25.1776ZM119.596 22.7699C120.084 22.7699 120.496 22.6373 120.832 22.3722C121.173 22.1023 121.433 21.7259 121.613 21.2429C121.798 20.7599 121.89 20.1941 121.89 19.5455C121.89 18.8968 121.8 18.3333 121.62 17.8551C121.44 17.3769 121.18 17.0076 120.839 16.7472C120.498 16.4867 120.084 16.3565 119.596 16.3565C119.099 16.3565 118.68 16.4915 118.339 16.7614C117.998 17.0312 117.74 17.4053 117.565 17.8835C117.39 18.3617 117.302 18.9157 117.302 19.5455C117.302 20.1799 117.39 20.741 117.565 21.2287C117.745 21.7116 118.003 22.0904 118.339 22.3651C118.68 22.6349 119.099 22.7699 119.596 22.7699Z" fill="#1D1D1F"/>
</svg>
